<?xml version="1.0" encoding="UTF-8" standalone="no"?>
<svg
   xmlns:dc="http://purl.org/dc/elements/1.1/"
   xmlns:cc="http://creativecommons.org/ns#"
   xmlns:rdf="http://www.w3.org/1999/02/22-rdf-syntax-ns#"
   xmlns:svg="http://www.w3.org/2000/svg"
   xmlns="http://www.w3.org/2000/svg"
   xmlns:sodipodi="http://sodipodi.sourceforge.net/DTD/sodipodi-0.dtd"
   xmlns:inkscape="http://www.inkscape.org/namespaces/inkscape"
   width="3300"
   height="3300"
   viewBox="0 0 386.81319 386.76"
   preserveAspectRatio="xMidYMid"
   id="svg2"
   version="1.1"
   inkscape:version="0.91 r13725"
   sodipodi:docname="discord-black.svg">
  <metadata
     id="metadata10">
    <rdf:RDF>
      <cc:Work
         rdf:about="">
        <dc:format>image/svg+xml</dc:format>
        <dc:type
           rdf:resource="http://purl.org/dc/dcmitype/StillImage" />
        <dc:title></dc:title>
      </cc:Work>
    </rdf:RDF>
  </metadata>
  <defs
     id="defs8" />
  <sodipodi:namedview
     pagecolor="#ffffff"
     bordercolor="#313131"
     borderopacity="1"
     objecttolerance="10"
     gridtolerance="10"
     guidetolerance="10"
     inkscape:pageopacity="0"
     inkscape:pageshadow="2"
     inkscape:window-width="1660"
     inkscape:window-height="1002"
     id="namedview6"
     showgrid="false"
     inkscape:zoom="0.0944"
     inkscape:cx="1092"
     inkscape:cy="1250"
     inkscape:window-x="21"
     inkscape:window-y="0"
     inkscape:window-maximized="0"
     inkscape:current-layer="svg2">
    <inkscape:grid
       type="xygrid"
       id="grid3336" />
  </sodipodi:namedview>
  <path
     d="m 309.20783,56.286822 -224.024002,0 c -18.892572,0 -34.274286,13.461236 -34.274286,30.14224 l 0,197.825538 c 0,16.68101 15.380571,30.14225 34.273143,30.14225 l 189.586285,0 -8.86172,-27.06953 21.4,17.4122 20.22858,16.38795 35.94514,27.80066 0,-262.499068 c 0,-16.681004 -15.38057,-30.14224 -34.27314,-30.14224 z M 244.67525,247.38273 c 0,0 -6.01828,-6.2925 -11.03428,-11.85283 21.90171,-5.41431 30.26057,-17.41219 30.26057,-17.41219 -6.85486,3.95096 -13.37486,6.73162 -19.22629,8.63209 -8.35885,3.07373 -16.384,5.12121 -24.24114,6.2925 -16.05028,2.63361 -30.76228,1.90243 -43.30057,-0.14605 -9.53029,-1.61037 -17.72229,-3.95096 -24.576,-6.2915 -3.84572,-1.31731 -8.02515,-2.92672 -12.20572,-4.9752 -0.50057,-0.29306 -1.00228,-0.43912 -1.504,-0.73218 -0.33371,-0.14601 -0.50171,-0.29206 -0.66857,-0.43812 -3.00914,-1.46331 -4.68114,-2.4876 -4.68114,-2.4876 0,0 8.02514,11.70582 29.25714,17.26519 -5.01485,5.56132 -11.20114,12.14489 -11.20114,12.14489 -36.94857,-1.02424 -50.99085,-22.24034 -50.99085,-22.24034 0,-47.11533 24.07428,-85.30548 24.07428,-85.30548 24.07428,-15.8028 46.97829,-15.36369 46.97829,-15.36369 l 1.672,1.75642 c -30.09258,7.60683 -43.96915,19.1676 -43.96915,19.1676 0,0 3.67771,-1.75542 9.86286,-4.24302 17.88914,-6.87765 32.10057,-8.77911 37.952,-9.21821 1.00229,-0.14703 1.83886,-0.29307 2.84229,-0.29307 a 141.45829,123.80574 0 0 1 33.77142,-0.29207 c 15.88115,1.60938 32.93486,5.70637 50.32115,14.04637 0,0 -13.20686,-10.97363 -41.62857,-18.58246 l 2.34057,-2.34056 c 0,0 22.904,-0.44011 46.97828,15.36369 0,0 24.07543,38.18915 24.07543,85.30448 0,0 -14.21143,21.2161 -51.15886,22.24034 z m -77.74057,-68.33238 c -9.52914,0 -17.05143,7.31574 -17.05143,16.2409 0,8.9261 7.68915,16.2419 17.05143,16.2419 9.53029,0 17.05257,-7.3158 17.05257,-16.2419 0.168,-8.92516 -7.52228,-16.2409 -17.05142,-16.2409 m 61.02171,0 c -9.53029,0 -17.05371,7.31574 -17.05371,16.2409 0,8.9261 7.69142,16.2419 17.05371,16.2419 9.52914,0 17.05143,-7.3158 17.05143,-16.2419 0,-8.92516 -7.52229,-16.2409 -17.05143,-16.2409"
     id="path4"
     inkscape:connector-curvature="0"
     style="fill:#313131" />
  <path
     style="fill:#313131"
     d="m 322.35823,332.51821 c -11.31717,-8.79119 -28.22804,-22.19504 -37.57971,-29.78628 -9.35165,-7.59124 -17.23355,-13.60055 -17.51531,-13.35395 -0.28176,0.2466 1.14338,5.48521 3.16698,11.64138 2.0236,6.15618 3.67927,11.78645 3.67927,12.51179 0,0.91733 -29.08123,1.31882 -95.53042,1.31882 -109.811737,0 -106.210146,0.30569 -117.608884,-9.9827 -4.081509,-3.68396 -7.25195,-7.9283 -8.183164,-10.955 -1.039327,-3.37814 -1.400551,-38.49576 -1.141971,-111.02063 l 0.378216,-106.07959 4.294758,-6.079176 c 2.661253,-3.76697 6.936638,-7.508834 11.240704,-9.837991 L 74.504641,57.136067 194.28929,56.80482 c 76.799,-0.212376 121.68006,0.115445 125.06643,0.913513 6.82407,1.608226 16.4399,8.848425 20.4352,15.386611 l 3.14399,5.145029 0.3829,103.706547 c 0.21059,57.03862 0.21059,117.84535 0,135.1261 l -0.3829,31.41958 -20.57668,-15.98399 z m -167.3637,-88.73387 c 7.87533,-9.1002 7.91474,-8.10224 -0.44774,-11.33902 -7.25963,-2.8099 -18.86259,-10.48125 -17.56744,-11.61474 0.33885,-0.29656 3.71288,0.83044 7.49784,2.50448 15.4657,6.84024 29.78334,9.82561 50.16372,10.45966 22.4255,0.69766 36.78364,-1.65253 54.93244,-8.99137 5.93734,-2.4009 11.04609,-4.14566 11.35278,-3.87725 1.72165,1.5068 -14.94068,10.93094 -24.12874,13.64712 -2.93356,0.86719 -2.12042,2.60793 4.28381,9.17048 l 3.93709,4.0344 9.22404,-1.29469 c 12.52569,-1.75813 26.28642,-7.57847 34.41273,-14.55545 6.68175,-5.73671 6.74057,-5.85817 6.73493,-13.90688 -0.007,-10.06893 -3.11375,-26.94673 -7.66708,-41.65351 -4.77711,-15.42961 -14.41922,-35.58292 -18.2449,-38.13428 -8.97484,-5.9854 -31.66935,-13.4085 -40.99353,-13.4085 -7.27455,0 -5.40233,2.14334 4.73289,5.41831 9.92535,3.20715 23.16279,9.27056 22.15838,10.14964 -0.2797,0.24477 -5.91746,-1.14202 -12.52839,-3.08176 -17.95703,-5.26885 -31.27279,-6.75609 -52.90631,-5.90912 -18.86348,0.73853 -30.65798,2.80877 -46.30249,8.12729 -4.2462,1.44353 -7.96628,2.40938 -8.26686,2.14632 -1.04729,-0.91661 17.4753,-9.21193 26.98511,-12.08526 10.14371,-3.06486 12.14913,-4.76542 5.6197,-4.76542 -9.73088,0 -32.84675,7.68478 -41.19935,13.69656 -9.8032,7.05587 -25.77376,56.34465 -25.78991,79.59356 l -0.006,8.21352 7.13326,5.83966 c 10.47179,8.57284 24.65041,13.80579 41.91294,15.46894 0.82884,0.0799 3.0639,-1.65382 4.9668,-3.85269 l -3e-5,0 z"
     id="path3342"
     inkscape:connector-curvature="0" />
  <path
     style="fill:#313131"
     d="m 161.2925,210.63733 c -4.57557,-1.74964 -9.38093,-7.0058 -10.49845,-11.48333 -2.66432,-10.67508 4.81257,-19.68146 16.33907,-19.68146 5.50618,0 7.24648,0.64862 11.33026,4.22278 4.34135,3.79957 4.82488,4.92166 4.82488,11.1962 0,6.14267 -0.54943,7.49422 -4.61201,11.34517 -4.88572,4.63126 -12.04268,6.443 -17.38375,4.40064 z"
     id="path3344"
     inkscape:connector-curvature="0" />
  <path
     style="fill:#313131"
     d="m 222.313,210.63733 c -17.23459,-6.59028 -12.98995,-31.16479 5.38295,-31.16479 10.44302,0 16.6128,6.2109 16.6128,16.72347 0,4.67093 -0.81192,6.43856 -4.61201,10.04068 -4.8857,4.63126 -12.04266,6.443 -17.38374,4.40064 z"
     id="path3346"
     inkscape:connector-curvature="0" />
  <path
     style="fill:#313131"
     d="m 2804.9237,2882.144 c -64.089,-49.7813 -206.1039,-162.1594 -315.5886,-249.7292 -109.4849,-87.5697 -201.0605,-157.2204 -203.5015,-154.7794 -2.4411,2.441 9.3427,47.1317 26.1861,99.3125 16.8433,52.1807 26.9262,98.6658 22.4061,103.3 -4.52,4.6342 -384.3524,7.0177 -844.072,5.2966 L 654.5,2682.4153 601.5339,2658.0379 c -66.01586,-30.3835 -118.48101,-79.3714 -144.06938,-134.521 -18.66213,-40.2217 -19.67205,-88.3834 -19.89289,-948.6675 l -0.23265,-906.29473 30.66556,-48.35456 c 31.47029,-49.6235 75.93931,-88.54783 135.6516,-118.73767 30.55928,-15.45041 136.57213,-17.11747 1075.21186,-16.90776 989.5617,0.22109 1043.4501,1.2047 1084.3754,19.7929 57.4588,26.09772 118.0066,80.52889 141.5791,127.27657 17.995,35.68685 19.4532,94.98273 23.2106,943.79955 2.2051,498.1462 1.6258,1016.3104 -1.2873,1151.476 l -5.2966,245.7557 -116.5255,-90.5114 z M 1329.3712,2065.8586 c 39.649,-38.7162 51.4941,-66.7061 28.2296,-66.7061 -23.1009,0 -145.4448,-65.881 -169.096,-91.0565 -29.9887,-31.9216 -24.7006,-31.7856 56.7777,1.4597 172.3997,70.3437 398.3206,100.9991 587.4725,79.7149 112.3244,-12.6393 277.3899,-58.0779 356.1402,-98.037 22.4131,-11.3727 42.874,-18.5548 45.4686,-15.9602 14.8612,14.8612 -165.2971,123.8446 -204.7682,123.8708 -27.9932,0.021 -23.1793,22.5514 13.4889,63.1386 46.0829,51.0082 73.6641,54.0287 199.4935,21.847 92.0302,-23.5373 166.3477,-60.5815 228.8243,-114.0591 l 42.2079,-36.1284 0,-82.7501 c 0,-103.8257 -23.0148,-226.6103 -68.5062,-365.4833 -38.9976,-119.0492 -108.8162,-265.8271 -139.6982,-293.6839 -53.4361,-48.2017 -275.2234,-125.0758 -360.8526,-125.0758 -52.8677,0 -35.2122,14.5242 57.6474,47.4235 92.9861,32.9441 187.7795,78.4664 179.8684,86.3775 -2.8919,2.8919 -45.0767,-6.6263 -93.744,-21.1516 -161.8627,-48.3097 -207.614,-54.3875 -406.2826,-53.9724 -205.2231,0.4289 -292.8065,13.0676 -445.1653,64.2397 -44.5143,14.9509 -83.6821,24.4365 -87.0395,21.079 -7.8288,-7.8288 149.7023,-80.322 246.1878,-113.2915 67.055,-22.913 70.8467,-25.6601 39.6144,-28.7007 -51.3614,-5.0001 -198.2718,36.0359 -288.5551,80.6011 -78.1294,38.566 -80.184,40.6251 -123.6922,123.9631 -79.5903,152.4518 -144.88481,383.9337 -158.58997,562.2329 l -6.88551,89.578 41.29997,36.8349 c 79.68838,71.0733 249.81481,140.5913 348.05671,142.2249 34.5481,0.5742 48.9955,-6.2058 82.0975,-38.529 z"
     id="path3356"
     inkscape:connector-curvature="0"
     transform="matrix(0.11721612,0,0,0.11721613,0,-0.02659971)" />
  <path
     style="fill:#313131"
     d="m 1361.2604,1791.4246 c -99.9802,-50.9101 -109.0699,-192.7644 -15.453,-241.1618 62.4222,-32.2706 131.5693,-25.4619 178.536,17.5799 89.2672,81.8072 36.9968,222.0499 -88.1898,236.6153 -24.9512,2.9031 -53.2767,-2.0263 -74.8932,-13.0334 z"
     id="path3358"
     inkscape:connector-curvature="0"
     transform="matrix(0.11721612,0,0,0.11721613,0,-0.02659971)" />
  <path
     style="fill:#313131"
     d="m 1879.304,1790.3611 c -95.1759,-46.887 -101.612,-195.0183 -10.5199,-242.1239 42.3759,-21.9134 119.5147,-21.714 153.2592,0.3963 97.2141,63.6971 83.6725,199.2195 -24.5124,245.3165 -44.4323,18.9323 -74.3549,18.024 -118.2269,-3.5889 z"
     id="path3360"
     inkscape:connector-curvature="0"
     transform="matrix(0.11721612,0,0,0.11721613,0,-0.02659971)" />
</svg>
